<svg viewBox="0 0 144 32" version="1.1" xmlns="http://www.w3.org/2000/svg" xmlns:xlink="http://www.w3.org/1999/xlink">
<style type="text/css">
  .mark{fill:#b34d71;}
  .word{fill:#8b738c;}
</style>
<path class="mark" d="M121.527 30.625c.75.33 1.533.608 2.34.824l.63.154 8.895-5.135.952 1.65-6.717 3.878a15.89 15.89 0 0 0 8.377-2.143c3.68-2.11 6.365-5.6 7.452-9.71.215-.8.367-1.616.457-2.44l-22.386 12.923zM142.3 8.843l-9.562 5.52-.952-1.65 9.562-5.52a16.19 16.19 0 0 0-1.433-1.866L120.66 16.45l-.953-1.65 18.815-10.86c-.64-.56-1.322-1.065-2.043-1.514l-12.232 7.06-.952-1.65 11.192-6.46c-.75-.33-1.533-.608-2.34-.824-.208-.056-.418-.107-.628-.155L112.74 11.24l-.18.622a15.88 15.88 0 0 0 1.597 12.135c1.333 2.3 3.178 4.208 5.38 5.578L144 15.45a15.87 15.87 0 0 0-1.69-6.609v.001zm-6.113 18.204l-.952-1.65 2.595-1.498.952 1.65-2.595 1.498zm-9.877-8.973l-.952-1.65 4.573-2.64.952 1.65-4.573 2.64zM127.982 0c-2.8.002-5.55.744-7.97 2.15a15.89 15.89 0 0 0-6.045 6.183L128.39.006 127.982 0z"/>
<path class="word" d="M11.385 14.868c0-.998-.38-1.767-1.104-2.25s-1.725-.713-2.932-.713c-.932 0-1.794.142-2.588.427-.828.314-1.518.684-2.07 1.14l-1.725-1.7c.794-.627 1.794-1.112 2.967-1.482 1.138-.37 2.38-.54 3.726-.54 1.173 0 2.174.143 3.07.4.863.285 1.553.655 2.105 1.14s.966 1.026 1.242 1.68a5.27 5.27 0 0 1 .414 2.08v5.9l.07 1.425c0 .513.07.94.172 1.254H11.8c-.173-.655-.276-1.282-.276-1.938h-.103a6.06 6.06 0 0 1-2.243 1.68c-.93.4-2 .598-3.243.598-.655 0-1.3-.057-2-.2-.724-.142-1.346-.4-1.932-.712S.968 22.317.59 21.775C.172 21.224 0 20.568 0 19.8c0-1.026.345-1.853 1-2.45s1.553-1.055 2.622-1.368 2.3-.513 3.657-.598l4.105-.143v-.37zm-.793 2.3l-2.484.085c-.863.057-1.656.17-2.346.342-.724.17-1.3.428-1.76.77s-.7.798-.7 1.368c0 .4.104.74.3.998.172.256.45.485.76.656s.7.285 1.07.342c.38.085.794.114 1.208.114 1.518 0 2.7-.37 3.52-1.14.793-.74 1.207-1.68 1.207-2.822v-.712h-.793zm14.178-.658l-5.97-6.412h4.002l4.002 4.645 4.036-4.645h3.795l-5.9 6.384 6.6 7.125h-4.037l-4.554-5.273-4.623 5.273h-3.9l6.555-7.096zm17.77 7.098h-3.243V10.1h3.243v13.5zm.552-18.382a1.49 1.49 0 0 1-.621 1.226c-.45.314-.966.485-1.553.485s-1.104-.17-1.518-.513c-.414-.313-.62-.712-.62-1.197s.207-.912.62-1.254c.414-.314.93-.485 1.518-.485a2.64 2.64 0 0 1 1.553.485c.414.342.62.77.62 1.254zm22.528 11.6c0 1.055-.207 1.995-.656 2.88a6.71 6.71 0 0 1-1.863 2.252c-.828.656-1.76 1.14-2.83 1.482-1.07.37-2.243.54-3.485.54s-2.415-.17-3.485-.54c-1.07-.342-2-.826-2.794-1.482-.793-.627-1.38-1.368-1.828-2.25s-.7-1.824-.7-2.88.242-1.995.7-2.878a6.79 6.79 0 0 1 1.828-2.223c.794-.627 1.725-1.112 2.794-1.482 1.07-.342 2.243-.513 3.485-.513s2.415.17 3.485.513c1.07.37 2 .855 2.83 1.482a6.9 6.9 0 0 1 1.863 2.223c.45.883.656 1.824.656 2.878zm-3.38 0a4.81 4.81 0 0 0-.345-1.852c-.242-.598-.62-1.1-1.07-1.567a5.18 5.18 0 0 0-1.7-1.055c-.7-.257-1.483-.4-2.346-.4s-1.656.142-2.312.4c-.7.257-1.276.627-1.725 1.055-.448.456-.793.97-1.035 1.567s-.38 1.197-.38 1.852.138 1.254.38 1.853.587 1.1 1.035 1.567 1.035.826 1.725 1.083c.656.257 1.45.4 2.312.4s1.656-.142 2.346-.4c.656-.256 1.242-.627 1.7-1.083s.828-.97 1.07-1.567.345-1.197.345-1.853zm11.9-4.503c.414-.712 1.07-1.34 2-1.852.897-.484 1.967-.74 3.2-.74 1.104 0 2.105.2 3.002.627.862.428 1.552 1.112 2.07 2.08.552-.883 1.3-1.54 2.312-2.024 1-.456 2.07-.684 3.243-.684 1.07 0 1.966.143 2.725.428.76.313 1.38.713 1.897 1.197a4.52 4.52 0 0 1 1.14 1.738c.243.655.345 1.368.345 2.138v8.38H92.84v-7.495a7.74 7.74 0 0 0-.172-1.568 3.36 3.36 0 0 0-.587-1.31 3.15 3.15 0 0 0-1.104-.912c-.45-.228-1.035-.342-1.76-.342s-1.38.114-1.897.37-.966.598-1.276.998a3.74 3.74 0 0 0-.725 1.396c-.172.513-.242 1.026-.242 1.568v7.296h-3.243v-8.04a6.15 6.15 0 0 0-.173-1.454c-.103-.427-.3-.826-.586-1.14a3.02 3.02 0 0 0-1.07-.74c-.448-.17-.966-.256-1.62-.256-1.207 0-2.174.4-2.967 1.197-.794.826-1.208 1.9-1.208 3.25v7.182h-3.243V13.016l-.034-1.396-.104-1.5h3.07l.103 1.14.034 1.083h.104z"/>
</svg>
